<?xml version="1.0" encoding="UTF-8" standalone="no"?>
<!DOCTYPE svg PUBLIC "-//W3C//DTD SVG 1.1//EN"
 "http://www.w3.org/Graphics/SVG/1.1/DTD/svg11.dtd">
<!-- Generated by graphviz version 3.0.0 (20220226.1711)
 -->
<!-- Title: version1.model.network.ResNet Pages: 1 -->
<svg width="500pt" height="319pt"
 viewBox="0.00 0.00 500.00 319.00" xmlns="http://www.w3.org/2000/svg" xmlns:xlink="http://www.w3.org/1999/xlink">
<g id="graph0" class="graph" transform="scale(1 1) rotate(0) translate(4 315)">
<title>version1.model.network.ResNet</title>
<polygon fill="white" stroke="transparent" points="-4,4 -4,-315 496,-315 496,4 -4,4"/>
<!-- version1.model.network.ResNet -->
<g id="node1" class="node">
<title>version1.model.network.ResNet</title>
<polygon fill="none" stroke="black" points="149.5,-181.5 149.5,-310.5 342.5,-310.5 342.5,-181.5 149.5,-181.5"/>
<text text-anchor="middle" x="246" y="-295.3" font-family="Times,serif" font-size="14.00">version1.model.network.ResNet</text>
<polyline fill="none" stroke="black" points="149.5,-287.5 342.5,-287.5 "/>
<text text-anchor="start" x="157.5" y="-272.3" font-family="Times,serif" font-size="14.00">decoder</text>
<text text-anchor="start" x="157.5" y="-257.3" font-family="Times,serif" font-size="14.00">encoder1</text>
<text text-anchor="start" x="157.5" y="-242.3" font-family="Times,serif" font-size="14.00">pre_decoder_dim</text>
<polyline fill="none" stroke="black" points="149.5,-234.5 342.5,-234.5 "/>
<text text-anchor="start" x="157.5" y="-219.3" font-family="Times,serif" font-size="14.00">forward(x)</text>
<text text-anchor="start" x="157.5" y="-204.3" font-family="Times,serif" font-size="14.00">train(mode)</text>
<text text-anchor="start" x="157.5" y="-189.3" font-family="Times,serif" font-size="14.00">weight_init(m)</text>
</g>
<!-- version1.model.network.ResNetEncoder -->
<g id="node2" class="node">
<title>version1.model.network.ResNetEncoder</title>
<polygon fill="none" stroke="black" points="0,-0.5 0,-129.5 238,-129.5 238,-0.5 0,-0.5"/>
<text text-anchor="middle" x="119" y="-114.3" font-family="Times,serif" font-size="14.00">version1.model.network.ResNetEncoder</text>
<polyline fill="none" stroke="black" points="0,-106.5 238,-106.5 "/>
<text text-anchor="start" x="8" y="-91.3" font-family="Times,serif" font-size="14.00">blocks</text>
<text text-anchor="start" x="8" y="-76.3" font-family="Times,serif" font-size="14.00">blocks_sizes : list</text>
<text text-anchor="start" x="8" y="-61.3" font-family="Times,serif" font-size="14.00">gate</text>
<text text-anchor="start" x="8" y="-46.3" font-family="Times,serif" font-size="14.00">gate_size : int</text>
<text text-anchor="start" x="8" y="-31.3" font-family="Times,serif" font-size="14.00">in_out_block_sizes : list</text>
<polyline fill="none" stroke="black" points="0,-23.5 238,-23.5 "/>
<text text-anchor="start" x="8" y="-8.3" font-family="Times,serif" font-size="14.00">forward(x)</text>
</g>
<!-- version1.model.network.ResNetEncoder&#45;&gt;version1.model.network.ResNet -->
<g id="edge1" class="edge">
<title>version1.model.network.ResNetEncoder&#45;&gt;version1.model.network.ResNet</title>
<path fill="none" stroke="black" d="M164.13,-129.61C173.71,-143.12 183.91,-157.48 193.73,-171.32"/>
<polygon fill="black" stroke="black" points="193.85,-171.5 200.59,-174.08 200.8,-181.29 194.06,-178.71 193.85,-171.5"/>
<text text-anchor="middle" x="212" y="-151.8" font-family="Times,serif" font-size="14.00" fill="green">encoder1</text>
</g>
<!-- version1.model.network.ResnetDecoder -->
<g id="node3" class="node">
<title>version1.model.network.ResnetDecoder</title>
<polygon fill="none" stroke="black" points="256,-23 256,-107 492,-107 492,-23 256,-23"/>
<text text-anchor="middle" x="374" y="-91.8" font-family="Times,serif" font-size="14.00">version1.model.network.ResnetDecoder</text>
<polyline fill="none" stroke="black" points="256,-84 492,-84 "/>
<text text-anchor="start" x="264" y="-68.8" font-family="Times,serif" font-size="14.00">avg</text>
<text text-anchor="start" x="264" y="-53.8" font-family="Times,serif" font-size="14.00">decoder</text>
<polyline fill="none" stroke="black" points="256,-46 492,-46 "/>
<text text-anchor="start" x="264" y="-30.8" font-family="Times,serif" font-size="14.00">forward(x)</text>
</g>
<!-- version1.model.network.ResnetDecoder&#45;&gt;version1.model.network.ResNet -->
<g id="edge2" class="edge">
<title>version1.model.network.ResnetDecoder&#45;&gt;version1.model.network.ResNet</title>
<path fill="none" stroke="black" d="M344.63,-107.07C331,-126.13 314.37,-149.39 298.67,-171.34"/>
<polygon fill="black" stroke="black" points="298.52,-171.55 298.29,-178.76 291.54,-181.31 291.78,-174.11 298.52,-171.55"/>
<text text-anchor="middle" x="334.5" y="-151.8" font-family="Times,serif" font-size="14.00" fill="green">decoder</text>
</g>
</g>
</svg>
